# xmcd CD database file
#
# Track frame offsets:
#	150
#	19130
#	41924
#	60432
#	81951
#	97311
#	117421
#	135234
#	156941
#	168808
#
# Disc length: 2459 seconds
#
# Revision: 0
# Processed by: cddbd v1.5.1PL0 Copyright (c) Steve Scherf et al.
# Submitted via: CDex 1.51
#
DISCID=7f09990a
DTITLE=ReFusion - U-15 〜Under Fifteen〜
DYEAR=1900
DGENRE=未分類 (日本)
TTITLE0=SSD
TTITLE1=チェキ！
TTITLE2=Twelve Sisters
TTITLE3=あっちを向いて
TTITLE4=知世のMerry Xmess
TTITLE5=Cherry Blossoms
TTITLE6=Love Sickness
TTITLE7=Hねっ
TTITLE8=Lacess Off
TTITLE9=Bassing
EXTD=
EXTT0=
EXTT1=
EXTT2=
EXTT3=
EXTT4=
EXTT5=
EXTT6=
EXTT7=
EXTT8=
EXTT9=
PLAYORDER=
